<svg width="43" height="62" viewBox="0 0 43 62" fill="none" xmlns="http://www.w3.org/2000/svg">
<g clip-path="url(#clip0_32_678)">
<mask id="mask0_32_678" style="mask-type:luminance" maskUnits="userSpaceOnUse" x="0" y="-1" width="43" height="63">
<path d="M42.66 -0.0102539H0V61.7106H42.66V-0.0102539Z" fill="white"/>
</mask>
<g mask="url(#mask0_32_678)">
<path d="M11.7966 19.9351C10.9615 17.3619 10.1245 14.7848 9.28554 12.2038C8.11521 8.60889 6.94389 5.0135 5.77165 1.41761C5.41189 0.311037 5.62725 0.00804519 6.79178 0.00804519H16.3146C17.4833 0.00804519 17.4834 0.00804699 17.8548 1.09852L21.0146 10.3961C21.0912 10.6215 21.1735 10.8469 21.3108 11.2333C21.448 10.8952 21.5435 10.6947 21.6143 10.4854C22.6878 7.31788 23.7729 4.15332 24.8218 0.971182C25.053 0.272982 25.3998 -0.0256165 26.1698 -0.0153705C29.4395 0.0270775 32.7104 0.000726731 35.9815 0.00365421C36.9929 0.00365421 37.2212 0.337383 36.9019 1.321C34.963 7.29495 33.0226 13.2674 31.0807 19.2384C31.007 19.4668 30.9363 19.6981 30.854 19.9703C32.3913 20.0786 33.7276 20.5953 34.8474 21.6317C35.83 22.5104 36.4971 23.6943 36.7444 24.9982C37.0637 26.7152 37.964 27.9461 39.4507 28.8302C42.3764 30.5691 43.4268 33.8143 42.0701 36.9554C41.3795 38.5552 41.3895 40.0702 42.0802 41.6671C43.4267 44.7849 42.3503 48.0753 39.4317 49.7863C38.0072 50.6221 37.1374 51.7946 36.7762 53.4076C35.9916 56.9206 33.2683 58.9435 29.7645 58.5672C28.1752 58.396 26.8532 58.86 25.6584 59.908C23.3163 61.9572 20.5002 62.2661 18.083 60.757C17.6596 60.4785 17.2596 60.1652 16.8868 59.8202C15.7309 58.8044 14.4305 58.4004 12.8946 58.5672C9.39528 58.9478 6.6544 56.925 5.87564 53.4193C5.72601 52.667 5.41779 51.9563 4.97192 51.3358C4.52604 50.7153 3.95307 50.1998 3.2923 49.8245C0.239381 48.0021 -0.786413 44.8155 0.617959 41.5427C1.27246 40.0204 1.2682 38.5596 0.609352 37.0359C-0.786352 33.8084 0.246599 30.5955 3.2504 28.801C4.66489 27.9579 5.53181 26.7737 5.88001 25.1577C6.53163 22.1322 8.55302 20.3274 11.6261 20.0084C11.6858 19.9912 11.743 19.9667 11.7966 19.9351ZM29.7673 57.1577C32.8463 57.3289 34.7766 56.0028 35.4022 53.1544C35.8573 51.1052 36.9613 49.6093 38.7398 48.5496C41.0515 47.1692 41.8664 44.6794 40.7813 42.1999C39.9289 40.2531 39.9216 38.3811 40.7726 36.4313C41.8736 33.9094 41.0617 31.4356 38.6979 30.032C36.9381 28.9854 35.8573 27.5056 35.4094 25.4769C34.7968 22.6958 32.8087 21.232 30.0042 21.4735C27.9251 21.6477 26.1437 21.0769 24.5861 19.6366C22.6775 17.8801 19.97 17.8801 18.0469 19.6498C16.4865 21.0857 14.7036 21.6507 12.6246 21.4735C9.83168 21.2336 7.84207 22.7016 7.22946 25.4915C6.78879 27.4924 5.73267 28.9664 3.99454 29.9997C1.56 31.4488 0.768278 33.8962 1.90391 36.5134C2.71735 38.3854 2.72882 40.2093 1.91971 42.0828C1.64104 42.7 1.47427 43.3628 1.42715 44.0398C1.33468 46.1387 2.31564 47.6611 4.09712 48.6856C4.87008 49.1119 5.54357 49.7014 6.07205 50.4144C6.60051 51.1272 6.97164 51.9468 7.16018 52.8177C7.90138 55.994 9.70171 57.3904 12.8962 57.1445C13.8053 57.0548 14.7228 57.1612 15.5884 57.4565C16.4541 57.752 17.2482 58.2298 17.9184 58.8585C20.035 60.7614 22.5678 60.7877 24.6815 58.8952C26.1568 57.5792 27.8111 56.9411 29.7703 57.1577H29.7673ZM35.3806 1.44249C32.4505 1.44249 29.6417 1.4586 26.833 1.42932C26.31 1.42932 26.0947 1.59765 25.9299 2.09093C24.3681 6.75435 22.7787 11.4075 21.1996 16.0665C21.1071 16.3374 21.0406 16.6155 20.9453 16.9448C22.9796 16.8189 24.5776 17.6342 26.0022 18.9603C26.7246 19.6322 27.6247 19.9513 28.6159 20.0567C29.1823 20.1167 29.4019 19.9191 29.5724 19.3863C30.6964 15.8543 31.8595 12.3355 33.0052 8.81088C33.7869 6.39574 34.5628 3.98352 35.3834 1.44249H35.3806ZM7.29592 1.44249C7.38983 1.77915 7.4404 2.01189 7.51842 2.23876C9.31867 7.76677 11.1204 13.2943 12.9235 18.8213C13.3859 20.2367 13.5131 20.3085 14.9463 19.884C15.2496 19.8098 15.5413 19.6935 15.8133 19.5385C16.959 18.7964 18.3792 18.2475 19.1435 17.2083C19.928 16.1427 20.0653 14.5882 20.4858 13.2474C19.195 9.44179 17.8996 5.63606 16.5993 1.83038C16.5536 1.73345 16.4856 1.64899 16.4011 1.58406C16.3167 1.51914 16.2182 1.47561 16.1138 1.45713C13.2125 1.43811 10.3085 1.44396 7.29888 1.44396L7.29592 1.44249Z" fill="#FFFCEF"/>
<path d="M21.3445 22.6441C30.5105 22.6558 37.7896 30.1018 37.7781 39.452C37.7651 48.5989 30.3401 56.0199 21.2045 55.9833C12.0095 55.9453 4.7637 48.1714 4.86195 39.1285C4.96019 30.0476 12.3042 22.6309 21.3445 22.6441ZM36.3708 39.2983C36.3621 30.8468 29.6047 24.0141 21.2941 24.0522C19.3207 24.0535 17.3671 24.4486 15.5445 25.2148C13.7219 25.9811 12.0661 27.1036 10.6717 28.5181C9.27739 29.9326 8.17168 31.6115 7.41776 33.4589C6.66385 35.3063 6.27652 37.2861 6.27785 39.2852C6.26946 41.2904 6.65271 43.2774 7.40549 45.132C8.15828 46.9865 9.26577 48.6718 10.6641 50.091C12.0625 51.5101 13.7243 52.6349 15.5535 53.4007C17.3828 54.1666 19.3435 54.5583 21.3228 54.5533C23.3018 54.5593 25.2625 54.1686 27.0918 53.404C28.9212 52.6393 30.5831 51.5156 31.9821 50.0977C33.3811 48.6797 34.4894 46.9954 35.2434 45.1418C35.9973 43.2881 36.382 41.3017 36.3751 39.2969L36.3708 39.2983Z" fill="#FFFCEF"/>
<path d="M14.3834 48.7875C14.6868 46.9901 14.9916 45.0462 15.3529 43.1126C15.4612 42.5272 15.3947 42.1232 14.944 41.6987C13.5868 40.4223 12.2609 39.1133 10.9663 37.7715C10.7042 37.4888 10.5631 37.1126 10.5733 36.725C10.5921 36.5391 11.1094 36.3181 11.4273 36.2668C13.3677 35.9478 15.3196 35.6901 17.2585 35.3608C17.5229 35.3168 17.8364 35.0315 17.9621 34.7753C18.8391 33.0466 19.6556 31.2872 20.5369 29.5615C20.6915 29.2585 21.0556 28.875 21.3244 28.875C21.5931 28.875 21.963 29.2541 22.1176 29.5571C22.9989 31.2828 23.837 33.032 24.6706 34.7826C24.7401 34.9602 24.859 35.1135 25.0129 35.224C25.1668 35.3344 25.349 35.3972 25.5375 35.4047C27.488 35.6565 29.4385 35.9536 31.3731 36.283C31.6621 36.3298 32.0464 36.5757 32.1143 36.804C32.1822 37.0323 32.0089 37.47 31.8051 37.6822C30.4335 39.0815 29.0369 40.4579 27.6151 41.8114C27.4603 41.9417 27.3449 42.1134 27.282 42.3071C27.2192 42.5007 27.2114 42.7084 27.2598 42.9062C27.5848 44.7227 27.8983 46.5407 28.2132 48.3601C28.2421 48.527 28.2565 48.6982 28.2695 48.868C28.3332 49.717 27.8664 50.039 27.1137 49.6526C25.3799 48.7495 23.6606 47.8419 21.9558 46.8964C21.4992 46.6417 21.1537 46.6505 20.7015 46.8964C18.9967 47.8376 17.2716 48.745 15.545 49.6482C14.8154 50.0229 14.3415 49.7229 14.3834 48.7875ZM29.9875 37.4963C28.1425 37.2168 26.4462 36.9299 24.7399 36.7162C24.1807 36.6459 23.886 36.3853 23.6621 35.9082C23.1145 34.746 22.5452 33.5956 21.9817 32.4407C21.7881 32.0426 21.5859 31.6458 21.3244 31.1233C20.5008 32.8153 19.7712 34.3683 18.9823 35.8892C18.8014 36.2408 18.5005 36.514 18.1356 36.6576C17.4753 36.8523 16.7658 36.8816 16.0781 36.984C14.9844 37.148 13.8907 37.3163 12.9645 37.4568C13.9932 38.5795 14.9872 39.7813 16.1026 40.8409C16.8077 41.5099 16.9999 42.1437 16.7919 43.0834C16.4552 44.6115 16.253 46.1704 15.9771 47.8127C17.2774 47.1174 18.5517 46.5627 19.6888 45.8074C20.8663 45.0243 21.856 45.0448 23.0234 45.8279C24.1432 46.5773 25.3973 47.1203 26.676 47.7981C26.3639 45.8952 26.0475 44.1387 25.8091 42.3603C25.7952 42.1775 25.817 41.9937 25.8733 41.8193C25.9296 41.645 26.0192 41.4837 26.137 41.3445C26.9562 40.456 27.8448 39.6319 28.7059 38.7829C29.1004 38.3819 29.502 37.9779 29.9845 37.4963H29.9875Z" fill="#FFFCEF"/>
</g>
</g>
<defs>
<clipPath id="clip0_32_678">
<rect width="42.66" height="61.7209" fill="white" transform="translate(0 -0.0102539)"/>
</clipPath>
</defs>
</svg>
