<?xml version="1.0" encoding="UTF-8"?>
<svg version="1.1" xmlns="http://www.w3.org/2000/svg" width="500" height="500">
<path d="M0 0 C1.32294067 -0.01353516 1.32294067 -0.01353516 2.67260742 -0.02734375 C12.54886249 0.01689067 21.27447791 2.5027262 30.375 6.25 C30.375 6.91 30.375 7.57 30.375 8.25 C31.15875 8.4975 31.9425 8.745 32.75 9 C35.75805008 10.4324048 36.12990357 11.2809239 37.375 14.25 C38.365 14.745 38.365 14.745 39.375 15.25 C40.09659424 16.89363134 40.76851421 18.56050386 41.375 20.25 C42.035 20.25 42.695 20.25 43.375 20.25 C45.9863801 31.12000667 46.81159587 41.25261504 46.73828125 52.39453125 C46.73776098 53.9825592 46.73828511 55.57058779 46.73979187 57.15861511 C46.7397031 60.45032641 46.72945717 63.74178787 46.71118164 67.03344727 C46.68825283 71.2557406 46.68800403 75.47767816 46.69469929 79.70001698 C46.69803113 82.96244998 46.6914281 86.22480132 46.68157005 89.48721886 C46.67772233 91.04577903 46.67656807 92.60434826 46.6781559 94.16291237 C46.67852523 96.32599102 46.66595257 98.48860267 46.6496582 100.65161133 C46.64274712 102.49569328 46.64274712 102.49569328 46.63569641 104.37702942 C46.375 107.25 46.375 107.25 44.375 109.25 C41.68530273 109.49291992 41.68530273 109.49291992 38.30859375 109.48046875 C37.10138672 109.47853516 35.89417969 109.47660156 34.65039062 109.47460938 C33.38388672 109.46236328 32.11738281 109.45011719 30.8125 109.4375 C29.54212891 109.43685547 28.27175781 109.43621094 26.96289062 109.43554688 C17.51510053 109.39010053 17.51510053 109.39010053 16.375 108.25 C16.13846477 105.72403741 15.95326308 103.21892793 15.8125 100.6875 C15.76931641 99.97658203 15.72613281 99.26566406 15.68164062 98.53320312 C15.57528223 96.77238088 15.47461154 95.0112168 15.375 93.25 C14.91609375 93.86488281 14.4571875 94.47976563 13.984375 95.11328125 C13.37078125 95.92152344 12.7571875 96.72976563 12.125 97.5625 C11.52171875 98.36300781 10.9184375 99.16351563 10.296875 99.98828125 C8.45684843 102.15367838 6.76463828 103.72438382 4.375 105.25 C3.715 105.25 3.055 105.25 2.375 105.25 C2.375 105.91 2.375 106.57 2.375 107.25 C-4.20277182 110.77097769 -9.63607543 111.90194558 -17.0625 111.75 C-17.98393799 111.74154053 -18.90537598 111.73308105 -19.85473633 111.72436523 C-26.40257815 111.55316845 -31.90915643 110.63062957 -37.625 107.25 C-38.285 106.92 -38.945 106.59 -39.625 106.25 C-39.625 105.59 -39.625 104.93 -39.625 104.25 C-40.5840625 103.8478125 -40.5840625 103.8478125 -41.5625 103.4375 C-43.625 102.25 -43.625 102.25 -44.625 99.25 C-45.285 99.25 -45.945 99.25 -46.625 99.25 C-51.7548864 91.71547936 -51.91451887 83.08575666 -50.625 74.25 C-49.44679645 70.76195867 -47.91158784 68.11425214 -45.625 65.25 C-45.02816406 64.42242187 -44.43132812 63.59484375 -43.81640625 62.7421875 C-38.61064123 56.82190571 -30.04059759 52.82933829 -22.625 50.25 C-21.965 50.58 -21.305 50.91 -20.625 51.25 C-20.625 50.59 -20.625 49.93 -20.625 49.25 C-19.72007812 49.05083984 -19.72007812 49.05083984 -18.796875 48.84765625 C-17.99765625 48.67105469 -17.1984375 48.49445313 -16.375 48.3125 C-15.58609375 48.13847656 -14.7971875 47.96445313 -13.984375 47.78515625 C-12.52542603 47.45423571 -11.0699087 47.10716949 -9.62109375 46.734375 C-7.40561519 46.19676377 -5.18398181 45.82457497 -2.9375 45.4375 C3.17865113 44.20703173 9.23619732 42.71286369 13.4375 37.875 C15.02766165 33.42254739 14.56738292 29.72143596 13.375 25.25 C5.20697104 22.68748111 -4.73927672 21.22264847 -12.625 25.25 C-13.96910262 27.26735205 -13.96910262 27.26735205 -14.625 29.25 C-15.285 29.25 -15.945 29.25 -16.625 29.25 C-16.769375 30.549375 -16.91375 31.84875 -17.0625 33.1875 C-17.5 37.125 -17.5 37.125 -18.625 38.25 C-20.69762076 38.33767112 -22.77320294 38.35695873 -24.84765625 38.34765625 C-26.10771484 38.34443359 -27.36777344 38.34121094 -28.66601562 38.33789062 C-30.00651109 38.32953403 -31.34700588 38.32106907 -32.6875 38.3125 C-34.03189942 38.3074866 -35.3763006 38.30292342 -36.72070312 38.29882812 C-40.02217941 38.28699488 -43.32356803 38.27050971 -46.625 38.25 C-46.955 35.94 -47.285 33.63 -47.625 31.25 C-46.965 31.25 -46.305 31.25 -45.625 31.25 C-45.8725 30.610625 -46.12 29.97125 -46.375 29.3125 C-46.74645942 24.76212205 -44.90306804 21.14605982 -42.625 17.25 C-41.965 16.92 -41.305 16.59 -40.625 16.25 C-40.295 15.26 -39.965 14.27 -39.625 13.25 C-34.35006793 8.44050312 -28.45540224 5.24914212 -21.625 3.25 C-21.625 2.92 -21.625 2.59 -21.625 2.25 C-14.45068159 0.36821156 -7.37470221 0.03108683 0 0 Z M15.375 31.25 C16.375 34.25 16.375 34.25 16.375 34.25 Z M13.375 58.25 C12.385 58.91 11.395 59.57 10.375 60.25 C8.71950469 60.63499891 7.0527567 60.97793135 5.375 61.25 C5.375 61.91 5.375 62.57 5.375 63.25 C4.4675 63.146875 3.56 63.04375 2.625 62.9375 C-4.40958979 62.90872867 -12.36602452 66.69692727 -17.625 71.25 C-19.9540793 75.07634457 -21.08578315 77.7844692 -20.625 82.25 C-19.35998537 84.53726156 -19.35998537 84.53726156 -17.625 86.5625 C-17.068125 87.25988281 -16.51125 87.95726562 -15.9375 88.67578125 C-15.504375 89.19527344 -15.07125 89.71476562 -14.625 90.25 C-13.635 89.92 -12.645 89.59 -11.625 89.25 C-11.295 89.91 -10.965 90.57 -10.625 91.25 C0.12783832 90.4020425 0.12783832 90.4020425 8.375 84.25 C11.38084301 79.71241233 13.48796455 75.6489754 14.375 70.25 C14.50261719 69.55777344 14.63023437 68.86554688 14.76171875 68.15234375 C15.3626992 64.22645846 15.73051422 61.57543184 13.375 58.25 Z M-49.625 74.25 C-48.625 76.25 -48.625 76.25 -48.625 76.25 Z M-49.625 89.25 C-48.625 91.25 -48.625 91.25 -48.625 91.25 Z " fill="#FEFEFE" transform="translate(450.625,173.75)"/>
<path d="M0 0 C0.79277344 0.31195313 1.58554687 0.62390625 2.40234375 0.9453125 C8.13868887 3.27435488 14.05518456 7.19761598 18 12 C18 12.66 18 13.32 18 14 C19.485 14.495 19.485 14.495 21 15 C21.6875 17.0625 21.6875 17.0625 22 19 C22.66 19 23.32 19 24 19 C28.42964305 27.40104716 31.34215234 34.41973447 31 44 C31.33 44.33 31.66 44.66 32 45 C32.10004903 47.24816065 32.12966884 49.49961907 32.125 51.75 C32.12886719 53.59851563 32.12886719 53.59851563 32.1328125 55.484375 C31.96761726 59.85719009 31.05508428 63.77966289 30 68 C29.79375 69.155 29.5875 70.31 29.375 71.5 C27.37886829 79.49953536 22.42513839 87.79042833 16 93 C13.6875 94.3125 13.6875 94.3125 12 95 C12 95.66 12 96.32 12 97 C11.34 97 10.68 97 10 97 C10 97.66 10 98.32 10 99 C9.11828125 99.43957031 8.2365625 99.87914062 7.328125 100.33203125 C5.36310437 101.31684793 3.4092802 102.32562971 1.484375 103.38671875 C-9.53850768 108.63046151 -23.0368944 108.45397032 -35 107 C-35.99 106.34 -36.98 105.68 -38 105 C-40.04584079 104.33841957 -40.04584079 104.33841957 -42.1875 103.875 C-43.445625 103.58625 -44.70375 103.2975 -46 103 C-46 102.34 -46 101.68 -46 101 C-46.66 100.95875 -47.32 100.9175 -48 100.875 C-52.32665788 99.61305812 -55.71836789 97.06991391 -59 94 C-59 93.34 -59 92.68 -59 92 C-59.99 92 -60.98 92 -62 92 C-62.33 91.01 -62.66 90.02 -63 89 C-63.515625 88.505 -64.03125 88.01 -64.5625 87.5 C-66 86 -66 86 -66 83 C-66.99 82.67 -67.98 82.34 -69 82 C-72.37707046 74.98233046 -74.50364077 67.58100737 -74.859375 59.79296875 C-74.80647754 57.97697168 -74.80647754 57.97697168 -76 57 C-76.09851171 55.16884117 -76.12972629 53.33380067 -76.125 51.5 C-76.12757813 50.4996875 -76.13015625 49.499375 -76.1328125 48.46875 C-76 46 -76 46 -75 45 C-74.67531248 42.96332373 -74.3905534 40.92022703 -74.125 38.875 C-72.82873126 30.18905326 -69.31759337 23.52592361 -65 16 C-64.34 16 -63.68 16 -63 16 C-62.59394531 15.11441406 -62.59394531 15.11441406 -62.1796875 14.2109375 C-57.13437675 4.75515642 -46.59929434 0.3265369 -36.875 -2.875 C-26.1358344 -5.50913496 -9.47306074 -6.31537382 0 0 Z M-28 19 C-28 19.66 -28 20.32 -28 21 C-29.32 21 -30.64 21 -32 21 C-32 21.66 -32 22.32 -32 23 C-32.5775 23.0825 -33.155 23.165 -33.75 23.25 C-37.49160498 24.49720166 -39.2605239 26.54414558 -41.03955078 30.04663086 C-43.7834956 36.48404758 -44.70111918 42.1601073 -44.875 49.125 C-44.92140625 50.06214844 -44.9678125 50.99929687 -45.015625 51.96484375 C-45.27725561 59.15968541 -44.40777843 65.38302888 -41.375 72 C-40.92125 72.99 -40.4675 73.98 -40 75 C-39.34 75 -38.68 75 -38 75 C-37.7215625 75.86625 -37.7215625 75.86625 -37.4375 76.75 C-34.84486003 80.80804517 -30.49558046 82.50147318 -26 84 C-20.27793707 84.47683858 -15.4158989 83.84371027 -10 82 C-10 81.34 -10 80.68 -10 80 C-9.34 80 -8.68 80 -8 80 C-8 79.34 -8 78.68 -8 78 C-7.01 77.67 -6.02 77.34 -5 77 C2.30417858 67.28999406 2.90103317 55.71343122 2 44 C1.06516819 41.28614562 1.06516819 41.28614562 0 39 C-0.0825 38.0925 -0.165 37.185 -0.25 36.25 C-1.34115986 31.52164061 -3.8933863 27.70815958 -7 24 C-7.66 24 -8.32 24 -9 24 C-9.495 23.01 -9.495 23.01 -10 22 C-12.52733235 21.34444881 -12.52733235 21.34444881 -15 21 C-15 20.34 -15 19.68 -15 19 C-19.29 19 -23.58 19 -28 19 Z " fill="#FEFEFE" transform="translate(365,178)"/>
<path d="M0 0 C4.37823917 -0.04938149 8.75633146 -0.0857104 13.13476562 -0.10986328 C14.6247032 -0.11993043 16.11462097 -0.13358518 17.60449219 -0.15087891 C19.74419028 -0.17509653 21.88362753 -0.18647564 24.0234375 -0.1953125 C25.31169434 -0.20578613 26.59995117 -0.21625977 27.92724609 -0.22705078 C31 0 31 0 33 2 C33.4140625 4.1640625 33.4140625 4.1640625 33.625 6.625 C33.69976562 7.44226563 33.77453125 8.25953125 33.8515625 9.1015625 C33.90054688 9.72804687 33.94953125 10.35453125 34 11 C34.66 11 35.32 11 36 11 C36.12117188 11.66386719 36.24234375 12.32773438 36.3671875 13.01171875 C36.61855469 14.33623047 36.61855469 14.33623047 36.875 15.6875 C37.11863281 16.99267578 37.11863281 16.99267578 37.3671875 18.32421875 C38.0096051 21.04061416 38.92295025 23.42770535 40 26 C40.74882724 28.01363084 41.47744577 30.03487223 42.1875 32.0625 C42.55230469 33.08472656 42.91710937 34.10695312 43.29296875 35.16015625 C43.99788528 37.99150606 44.01127653 39.31399801 43 42 C43.66 42 44.32 42 45 42 C47.125 48.75 47.125 48.75 46 51 C46.99 51.495 46.99 51.495 48 52 C48.72640955 54.31543043 49.38431458 56.65269935 50 59 C50.37125 60.010625 50.7425 61.02125 51.125 62.0625 C52.0554939 65.18630095 52.15432577 67.7591588 52 71 C52.66 70.67 53.32 70.34 54 70 C54.495 68.515 54.495 68.515 55 67 C55.66 67 56.32 67 57 67 C57.0825 65.7625 57.165 64.525 57.25 63.25 C58.00566726 56.32852599 60.4197766 49.82610868 63.06640625 43.41796875 C63.95216802 41.12388282 64.51943988 38.9695913 65 36.5625 C65.76651945 32.93350946 66.8037881 29.51387245 68 26 C68.34328345 24.64832143 68.67607228 23.29394731 69 21.9375 C69.75838125 18.81579115 70.79343289 15.9809305 72 13 C73.04201697 9.67889172 74.02665652 6.3418126 75 3 C75.66 3 76.32 3 77 3 C76.505 1.515 76.505 1.515 76 0 C86.23 0 96.46 0 107 0 C104.92207792 10.38961039 104.92207792 10.38961039 102 16 C101.16781709 18.54186562 100.42630115 21.10146266 99.6875 23.671875 C98.717851 26.95545911 97.40899084 30.04568804 96.0625 33.1875 C94.79450256 36.54396382 93.79805595 39.94982 92.78515625 43.390625 C91.84397658 46.51852559 90.80319182 49.60629845 89.75390625 52.69921875 C88.66554915 56.02068162 87.70408692 59.37718658 86.74609375 62.73828125 C86.01129464 64.96576127 85.0603773 66.91225326 84 69 C82.47406101 73.12766497 81.18901466 77.32663528 80 81.5625 C78.6019289 86.36836939 76.81427779 90.98825487 74.9375 95.625 C73.91706653 98.12040726 73.91706653 98.12040726 73 101.25 C72 104 72 104 70 105 C67.48169583 105.12294406 64.99206835 105.18833554 62.47265625 105.203125 C61.72793564 105.20882507 60.98321503 105.21452515 60.21592712 105.22039795 C58.63981549 105.22984791 57.06368409 105.23638192 55.48754883 105.24023438 C53.07533397 105.24994832 50.66396823 105.28097361 48.25195312 105.3125 C46.72135923 105.31902932 45.19075924 105.32428007 43.66015625 105.328125 C42.57723045 105.3466452 42.57723045 105.3466452 41.47242737 105.36553955 C36.50147309 105.34340631 36.50147309 105.34340631 34.08764648 103.69042969 C32.36055011 101.00616139 31.79427498 98.07119658 31 95 C30.3400321 93.33066942 29.67441131 91.6635479 29 90 C28.66601183 88.66683055 28.3327576 87.33347714 28 86 C27.53457134 84.53722422 27.05480285 83.07895141 26.5625 81.625 C26.29695313 80.83738281 26.03140625 80.04976563 25.7578125 79.23828125 C25.50773437 78.49964844 25.25765625 77.76101562 25 77 C24.33333333 75 23.66666667 73 23 71 C22.62875 69.989375 22.2575 68.97875 21.875 67.9375 C21.03155666 65.10594023 20.82762447 62.93038397 21 60 C20.34 60 19.68 60 19 60 C18.54427083 58.01432292 18.08854167 56.02864583 17.6328125 54.04296875 C17.01992277 51.72257026 17.01992277 51.72257026 15 49 C14.50487395 47.34957983 14.01533846 45.69691801 13.57421875 44.03125 C12.93596235 41.77347228 12.15984634 39.58583475 11.375 37.375 C10.27258914 34.13424446 9.66515191 31.46009695 10 28 C9.34 28 8.68 28 8 28 C5.73383385 21.74538144 4.16204993 15.54849313 3 9 C2.34 9 1.68 9 1 9 C0.67 6.03 0.34 3.06 0 0 Z M70 20 C71 22 71 22 71 22 Z " fill="#FEFEFE" transform="translate(187,178)"/>
<path d="M0 0 C0.886875 0.12375 1.77375 0.2475 2.6875 0.375 C2.92006607 5.14260445 2.00173934 8.81381641 0.6875 13.375 C0.36967867 15.76641169 0.13324508 18.15072252 -0.06640625 20.5546875 C-0.3125 22.375 -0.3125 22.375 -1.3125 23.375 C-1.66578242 25.70250773 -1.96942086 28.03761342 -2.25 30.375 C-2.87724984 35.38592451 -3.63289947 40.29510093 -4.8125 45.20703125 C-5.60821683 48.6572097 -6.19371357 52.14339833 -6.8125 55.62890625 C-7.27666473 58.17818599 -7.78617545 60.71295118 -8.3125 63.25 C-9.52755344 69.25881895 -10.40876175 75.31300188 -11.3125 81.375 C-11.68634547 83.81267734 -12.06130558 86.25018406 -12.4375 88.6875 C-12.60507813 89.77675781 -12.77265625 90.86601562 -12.9453125 91.98828125 C-13.12707031 93.16970703 -13.12707031 93.16970703 -13.3125 94.375 C-12.03375 94.08625 -10.755 93.7975 -9.4375 93.5 C-8.71820313 93.33757812 -7.99890625 93.17515625 -7.2578125 93.0078125 C-5.10530036 92.47025572 -5.10530036 92.47025572 -3.3125 90.375 C-2.3225 90.375 -1.3325 90.375 -0.3125 90.375 C-0.3125 89.385 -0.3125 88.395 -0.3125 87.375 C1.3375 86.715 2.9875 86.055 4.6875 85.375 C5.3475 87.025 6.0075 88.675 6.6875 90.375 C5.56950014 91.71420838 4.44288103 93.04622556 3.3125 94.375 C2.37277344 95.48875 2.37277344 95.48875 1.4140625 96.625 C0.55941406 97.49125 0.55941406 97.49125 -0.3125 98.375 C-0.9725 98.375 -1.6325 98.375 -2.3125 98.375 C-2.8075 99.86 -2.8075 99.86 -3.3125 101.375 C-7.76964286 105.375 -7.76964286 105.375 -10.3125 105.375 C-10.6425 106.035 -10.9725 106.695 -11.3125 107.375 C-14.54041555 109.5269437 -15.59650809 109.57586443 -19.3125 109.375 C-19.3125 110.035 -19.3125 110.695 -19.3125 111.375 C-22.6125 111.375 -25.9125 111.375 -29.3125 111.375 C-29.3125 110.715 -29.3125 110.055 -29.3125 109.375 C-30.075625 109.2925 -30.83875 109.21 -31.625 109.125 C-34.95715346 108.19509671 -35.62384332 107.35025224 -37.3125 104.375 C-41.07875335 95.851374 -39.15420597 87.17243475 -37.3125 78.375 C-39.58686911 80.64936911 -41.12189387 83.73574072 -42.83984375 86.44140625 C-43.32582031 87.07949219 -43.81179687 87.71757812 -44.3125 88.375 C-44.9725 88.375 -45.6325 88.375 -46.3125 88.375 C-46.8075 90.355 -46.8075 90.355 -47.3125 92.375 C-47.9725 92.375 -48.6325 92.375 -49.3125 92.375 C-49.3125 93.035 -49.3125 93.695 -49.3125 94.375 C-50.78401051 95.65030911 -52.26112247 96.9207574 -53.78515625 98.1328125 C-55.4103611 99.40389999 -55.4103611 99.40389999 -57.0625 101.1875 C-58.3125 102.375 -58.3125 102.375 -60.3125 102.375 C-60.3125 103.035 -60.3125 103.695 -60.3125 104.375 C-60.951875 104.49875 -61.59125 104.6225 -62.25 104.75 C-63.2709375 105.059375 -63.2709375 105.059375 -64.3125 105.375 C-64.6425 106.035 -64.9725 106.695 -65.3125 107.375 C-68.3443856 109.25686002 -69.55767355 109.375 -73.3125 109.375 C-73.3125 110.035 -73.3125 110.695 -73.3125 111.375 C-78.85448634 112.57326732 -87.06650551 113.99799724 -92.3125 111.375 C-92.3125 110.715 -92.3125 110.055 -92.3125 109.375 C-92.869375 109.33375 -93.42625 109.2925 -94 109.25 C-97.51956025 107.9182745 -99.44557806 105.52831691 -101.3125 102.375 C-103.65144006 95.87394608 -104.52537911 88.01363733 -102.3125 81.375 C-101.6525 81.375 -100.9925 81.375 -100.3125 81.375 C-100.52777344 80.53710938 -100.74304688 79.69921875 -100.96484375 78.8359375 C-101.39321888 74.57143903 -100.41393871 71.97871959 -98.875 68 C-98.63201172 67.35933594 -98.38902344 66.71867187 -98.13867188 66.05859375 C-97.54262574 64.49251176 -96.92930615 62.93302245 -96.3125 61.375 C-95.6525 61.375 -94.9925 61.375 -94.3125 61.375 C-93.8175 58.405 -93.8175 58.405 -93.3125 55.375 C-92.6525 55.375 -91.9925 55.375 -91.3125 55.375 C-91.23 54.67375 -91.1475 53.9725 -91.0625 53.25 C-90.12146238 49.64268911 -88.47783577 47.4181746 -86.3125 44.375 C-85.3313391 42.87630368 -84.35230158 41.37621583 -83.375 39.875 C-80.8862575 36.15133717 -78.35246319 32.66829345 -75.3125 29.375 C-74.6525 29.375 -73.9925 29.375 -73.3125 29.375 C-73.085625 28.818125 -72.85875 28.26125 -72.625 27.6875 C-70.93699964 24.71340412 -68.84573483 22.65491135 -66.3125 20.375 C-65.6525 20.375 -64.9925 20.375 -64.3125 20.375 C-64.3125 19.715 -64.3125 19.055 -64.3125 18.375 C-60.83905421 14.78143505 -56.75418658 11.65929596 -52.3125 9.375 C-51.6525 9.375 -50.9925 9.375 -50.3125 9.375 C-50.3125 8.715 -50.3125 8.055 -50.3125 7.375 C-48.3325 7.045 -46.3525 6.715 -44.3125 6.375 C-44.3125 5.715 -44.3125 5.055 -44.3125 4.375 C-34.63321378 1.92970664 -26.94200308 0.23067246 -17.3125 3.375 C-17.3125 4.035 -17.3125 4.695 -17.3125 5.375 C-16.3225 5.045 -15.3325 4.715 -14.3125 4.375 C-14.3125 5.035 -14.3125 5.695 -14.3125 6.375 C-11.52410696 6.87765692 -11.52410696 6.87765692 -8.3125 6.375 C-7.075 4.89 -7.075 4.89 -5.8125 3.375 C-3.3125 0.375 -3.3125 0.375 0 0 Z M-53.3125 20.375 C-53.6425 21.035 -53.9725 21.695 -54.3125 22.375 C-54.92738281 22.67792969 -55.54226562 22.98085937 -56.17578125 23.29296875 C-59.75963938 25.10782927 -62.04902017 28.10942228 -64.3125 31.375 C-65.25490924 34.13264351 -65.25490924 34.13264351 -65.3125 36.375 C-65.9725 36.375 -66.6325 36.375 -67.3125 36.375 C-67.3125 37.365 -67.3125 38.355 -67.3125 39.375 C-67.9725 39.705 -68.6325 40.035 -69.3125 40.375 C-71.55396689 45.39588583 -72.73958917 50.85717287 -73.78515625 56.234375 C-74.3125 58.375 -74.3125 58.375 -75.34765625 60.51953125 C-76.78210281 64.76479618 -76.68101606 68.861273 -76.6875 73.3125 C-76.71199219 74.19357422 -76.73648438 75.07464844 -76.76171875 75.98242188 C-76.78767785 81.75832252 -76.12092648 84.96487045 -72.3125 89.375 C-69.13837823 90.96206088 -65.77611333 90.65977127 -62.3125 90.375 C-59.43035113 89.49285113 -59.43035113 89.49285113 -57.3125 88.375 C-57.3125 87.715 -57.3125 87.055 -57.3125 86.375 C-56.714375 86.08625 -56.11625 85.7975 -55.5 85.5 C-53.11922208 84.32757974 -53.11922208 84.32757974 -50.3125 82.375 C-50.3125 81.385 -50.3125 80.395 -50.3125 79.375 C-49.3225 79.375 -48.3325 79.375 -47.3125 79.375 C-46.9825 78.385 -46.6525 77.395 -46.3125 76.375 C-45.86777344 75.93414062 -45.42304688 75.49328125 -44.96484375 75.0390625 C-38.86563667 68.89659864 -32.67707582 57.57020538 -32.0625 48.8125 C-32.145 48.008125 -32.2275 47.20375 -32.3125 46.375 C-31.6525 46.045 -30.9925 45.715 -30.3125 45.375 C-27.97036109 37.95822678 -26.84855198 31.65871031 -30.5 24.5625 C-32.68599019 21.04062691 -34.25779835 18.72656722 -38.3125 17.375 C-43.94851345 16.73221499 -48.76748483 16.5630518 -53.3125 20.375 Z M-36.3125 75.375 C-35.3125 77.375 -35.3125 77.375 -35.3125 77.375 Z " fill="#FEFEFE" transform="translate(176.3125,172.625)"/>
<path d="M0 0 C0 0.66 0 1.32 0 2 C0.7425 2.061875 1.485 2.12375 2.25 2.1875 C5.99810061 3.29489336 7.0092057 4.65830956 9 8 C10.41666148 12.98911218 10.3960918 17.31199431 8 22 C4.22063896 25.86525561 1.43924806 27.77336466 -4 28 C-7.375 27.5625 -7.375 27.5625 -10 27 C-10 26.34 -10 25.68 -10 25 C-11.32 24.34 -12.64 23.68 -14 23 C-14 22.34 -14 21.68 -14 21 C-14.66 20.67 -15.32 20.34 -16 20 C-16.45375 19.071875 -16.9075 18.14375 -17.375 17.1875 C-18.94665249 14.10464319 -20.54488897 12.37045203 -23 10 C-23 9.34 -23 8.68 -23 8 C-24.3921875 8.2784375 -24.3921875 8.2784375 -25.8125 8.5625 C-29 9 -29 9 -32 8 C-32 8.66 -32 9.32 -32 10 C-32.73476562 10.66902344 -32.73476562 10.66902344 -33.484375 11.3515625 C-35.88515559 13.96272077 -35.28556024 16.38254595 -35.1640625 19.7734375 C-34.97976123 22.27466896 -34.75001527 24.59995113 -34 27 C-33.34 27.33 -32.68 27.66 -32 28 C-32 28.99 -32 29.98 -32 31 C-31.34 31 -30.68 31 -30 31 C-28.375 32.375 -28.375 32.375 -27 34 C-27 34.66 -27 35.32 -27 36 C-26.4328125 36.26039063 -25.865625 36.52078125 -25.28125 36.7890625 C-22.79525405 38.10868364 -20.71394643 39.63872009 -18.5 41.375 C-17.7471875 41.96023437 -16.994375 42.54546875 -16.21875 43.1484375 C-14.0001699 44.99985821 -11.93997863 46.85720542 -10 49 C-10 49.66 -10 50.32 -10 51 C-9.34 51 -8.68 51 -8 51 C-8 51.66 -8 52.32 -8 53 C-7.34 53 -6.68 53 -6 53 C-6 53.66 -6 54.32 -6 55 C-5.34 55 -4.68 55 -4 55 C1.10696479 62.05855491 2.19645766 68.3918577 1 77 C-0.02982884 80.20440303 -1.31526257 83.08931525 -3 86 C-3.66 86 -4.32 86 -5 86 C-5.165 86.680625 -5.33 87.36125 -5.5 88.0625 C-7.4128434 91.808485 -9.99518219 93.81704732 -13.22265625 96.44921875 C-15.10499903 97.89338958 -15.10499903 97.89338958 -16 100 C-27.02277161 106.21797373 -38.82628523 110.37644873 -51.453125 107.10546875 C-54.33489418 106.13918832 -57.17547008 105.12179912 -60 104 C-60 103.34 -60 102.68 -60 102 C-61.32 101.67 -62.64 101.34 -64 101 C-64 100.34 -64 99.68 -64 99 C-64.598125 98.773125 -65.19625 98.54625 -65.8125 98.3125 C-68.70715882 96.57570471 -69.63035715 95.0816964 -71 92 C-71.67637771 87.43445043 -71.18042922 84.80491853 -68.625 81.0625 C-67.2890625 79.28515625 -67.2890625 79.28515625 -66 78 C-65.34 78 -64.68 78 -64 78 C-64 77.34 -64 76.68 -64 76 C-60.0186217 74.6728739 -56.14954773 74.93084087 -52 75 C-52 75.66 -52 76.32 -52 77 C-51.38125 77.28875 -50.7625 77.5775 -50.125 77.875 C-46.08180416 80.01551544 -42.66271804 83.95661937 -41.25 88.3125 C-41.1675 88.869375 -41.085 89.42625 -41 90 C-40.34 90 -39.68 90 -39 90 C-37.97803008 90.97753644 -36.98020375 91.9805881 -36 93 C-32.30513897 95.46324069 -30.36706908 95.38991688 -26 95 C-23.38406847 93.16884793 -23.03010545 92.09031634 -22 89 C-21.93029948 86.60509014 -21.91551997 84.20832309 -21.9375 81.8125 C-21.94652344 80.54019531 -21.95554688 79.26789063 -21.96484375 77.95703125 C-21.97644531 76.98121094 -21.98804688 76.00539063 -22 75 C-22.66 75 -23.32 75 -24 75 C-24.20625 74.278125 -24.4125 73.55625 -24.625 72.8125 C-25.97433447 70.05249768 -26.80020565 69.15478986 -29.125 67.3125 C-30.07375 66.549375 -31.0225 65.78625 -32 65 C-32 64.34 -32 63.68 -32 63 C-32.928125 62.5359375 -32.928125 62.5359375 -33.875 62.0625 C-35.25 61.375 -36.625 60.6875 -38 60 C-38 59.34 -38 58.68 -38 58 C-39.65 57.34 -41.3 56.68 -43 56 C-43 55.34 -43 54.68 -43 54 C-43.5775 53.773125 -44.155 53.54625 -44.75 53.3125 C-47.58373895 51.65948561 -49.03144113 49.60357787 -51 47 C-51.515625 46.525625 -52.03125 46.05125 -52.5625 45.5625 C-56.97519887 40.76608818 -57.43059394 35.91276809 -57.25 29.75 C-57.24484375 29.03070313 -57.2396875 28.31140625 -57.234375 27.5703125 C-57.15558639 22.31117278 -57.15558639 22.31117278 -56 20 C-55.34 20 -54.68 20 -54 20 C-53.67 18.35 -53.34 16.7 -53 15 C-52.34 15 -51.68 15 -51 15 C-50.814375 14.278125 -50.62875 13.55625 -50.4375 12.8125 C-48.5043678 9.03028483 -45.74316961 6.95911995 -42 5 C-41.01 5 -40.02 5 -39 5 C-38.67 4.34 -38.34 3.68 -38 3 C-35.68191636 1.96514123 -33.34824702 0.9644586 -31 0 C-30.67 -0.33 -30.34 -0.66 -30 -1 C-20.32132881 -2.93573424 -9.57427154 -2.15193151 0 0 Z " fill="#FEFEFE" transform="translate(71,177)"/>
<path d="M0 0 C1 4 1 4 1 4 Z " fill="#FFFFFF" transform="translate(396,218)"/>
<path d="" fill="#FFFFFF" transform="translate(0,0)"/>
<path d="M0 0 C2 1 2 1 2 1 Z " fill="#FFFFFF" transform="translate(63,204)"/>
<path d="" fill="#FFFFFF" transform="translate(0,0)"/>
<path d="" fill="#FFFFFF" transform="translate(0,0)"/>
<path d="" fill="#FFFFFF" transform="translate(0,0)"/>
<path d="" fill="#FFFFFF" transform="translate(0,0)"/>
<path d="" fill="#FFFFFF" transform="translate(0,0)"/>
<path d="" fill="#FFFFFF" transform="translate(0,0)"/>
<path d="" fill="#FFFFFF" transform="translate(0,0)"/>
</svg>
