<svg width="20" height="24" viewBox="0 0 20 24" fill="none" xmlns="http://www.w3.org/2000/svg">
<g clip-path="url(#clip0_32_94)">
<mask id="mask0_32_94" style="mask-type:luminance" maskUnits="userSpaceOnUse" x="0" y="-1" width="20" height="25">
<path d="M20 -0.00500488H0V23.195H20V-0.00500488Z" fill="white"/>
</mask>
<g mask="url(#mask0_32_94)">
<path d="M10.7256 9.59498V2.79498C10.7256 2.26455 10.5149 1.75584 10.1398 1.38077C9.76479 1.00569 9.25607 0.794983 8.72559 0.794983C8.19519 0.794983 7.68648 1.00569 7.31141 1.38077C6.93634 1.75584 6.72563 2.26455 6.72563 2.79498V14.9216L4.53288 11.1236C4.40168 10.8959 4.22688 10.6963 4.01851 10.5363C3.81012 10.3761 3.57224 10.2587 3.31844 10.1906C3.06463 10.1224 2.79989 10.105 2.53935 10.1392C2.2788 10.1735 2.02756 10.2587 1.79999 10.3901C1.57241 10.5215 1.37296 10.6965 1.21303 10.905C1.0531 11.1135 0.935828 11.3515 0.867924 11.6054C0.800012 11.8592 0.7828 12.1239 0.81726 12.3845C0.851724 12.645 0.937188 12.8962 1.06877 13.1236C4.32563 19.995 6.30735 22.395 10.7256 22.395C11.7762 22.395 12.8165 22.188 13.7871 21.786C14.7577 21.3839 15.6396 20.7947 16.3825 20.0519C17.1253 19.309 17.7146 18.4271 18.1166 17.4564C18.5187 16.4859 18.7256 15.4455 18.7256 14.395V10.395C18.7256 9.86458 18.5149 9.35586 18.1398 8.98074C17.7648 8.6057 17.2561 8.39498 16.7256 8.39498C16.1952 8.39498 15.6865 8.6057 15.3114 8.98074C14.9363 9.35586 14.7256 9.86458 14.7256 10.395" stroke="#FFF7E6" stroke-width="1.6" stroke-linecap="round" stroke-linejoin="round"/>
<path d="M14.725 10.395V9.19501C14.725 8.66461 14.5144 8.15589 14.1393 7.78079C13.7643 7.40572 13.2555 7.19501 12.725 7.19501C12.1947 7.19501 11.6859 7.40572 11.3109 7.78079C10.9358 8.15589 10.725 8.66461 10.725 9.19501V9.59501" stroke="#FFF7E6" stroke-width="1.6" stroke-linecap="round" stroke-linejoin="round"/>
</g>
</g>
<defs>
<clipPath id="clip0_32_94">
<rect width="20" height="23.2" fill="white" transform="translate(0 -0.00500488)"/>
</clipPath>
</defs>
</svg>
