<svg xmlns="http://www.w3.org/2000/svg" xmlns:xlink="http://www.w3.org/1999/xlink" width="430" zoomAndPan="magnify" viewBox="0 0 322.5 74.999997" height="100" preserveAspectRatio="xMidYMid meet" version="1.0"><defs><g/><clipPath id="6d8e767633"><path d="M 0 0.0585938 L 322 0.0585938 L 322 74.941406 L 0 74.941406 Z M 0 0.0585938 " clip-rule="nonzero"/></clipPath><clipPath id="3f7aa95ea7"><rect x="0" width="322" y="0" height="75"/></clipPath></defs><g clip-path="url(#6d8e767633)"><g transform="matrix(1, 0, 0, 1, 0, 0.000000000000004802)"><g clip-path="url(#3f7aa95ea7)"><g fill="#ffffff" fill-opacity="1"><g transform="translate(0, 54.667482)"><g><path d="M 43.28125 -0.625 C 43.695312 -0.625 44.0625 -0.75 44.375 -1 C 44.6875 -1.25 44.9375 -1.5625 45.125 -1.9375 C 45.3125 -2.3125 45.457031 -2.71875 45.5625 -3.15625 C 45.664062 -3.59375 45.71875 -4.019531 45.71875 -4.4375 L 46.46875 -4.4375 C 46.46875 -3.976562 46.414062 -3.4375 46.3125 -2.8125 C 46.207031 -2.1875 45.96875 -1.601562 45.59375 -1.0625 C 45.21875 -0.519531 44.675781 -0.0625 43.96875 0.3125 C 43.257812 0.6875 42.300781 0.875 41.09375 0.875 C 39.757812 0.875 38.5625 0.5625 37.5 -0.0625 C 36.4375 -0.6875 35.445312 -1.570312 34.53125 -2.71875 C 33.613281 -3.863281 32.734375 -5.25 31.890625 -6.875 C 31.054688 -8.5 30.222656 -10.296875 29.390625 -12.265625 C 28.679688 -13.890625 27.828125 -15.398438 26.828125 -16.796875 C 25.828125 -18.191406 24.691406 -19.378906 23.421875 -20.359375 C 22.148438 -21.335938 20.765625 -22.085938 19.265625 -22.609375 C 17.765625 -23.128906 16.140625 -23.347656 14.390625 -23.265625 L 14.390625 -4.125 C 14.390625 -2.957031 14.691406 -2.101562 15.296875 -1.5625 C 15.898438 -1.019531 16.910156 -0.75 18.328125 -0.75 L 20.640625 -0.75 L 20.640625 0 L 2.875 0 L 2.875 -0.75 L 5 -0.75 C 6.5 -0.75 7.550781 -1.019531 8.15625 -1.5625 C 8.757812 -2.101562 9.0625 -2.957031 9.0625 -4.125 L 9.0625 -41.09375 C 9.0625 -42.59375 8.75 -43.53125 8.125 -43.90625 C 7.5 -44.28125 6.457031 -44.46875 5 -44.46875 L 2.875 -44.46875 L 2.875 -45.21875 L 9.9375 -45.21875 C 12.070312 -45.175781 14.328125 -45.28125 16.703125 -45.53125 C 19.078125 -45.78125 21.304688 -45.90625 23.390625 -45.90625 C 27.015625 -45.90625 29.941406 -45.550781 32.171875 -44.84375 C 34.410156 -44.132812 36.15625 -43.226562 37.40625 -42.125 C 38.65625 -41.019531 39.488281 -39.789062 39.90625 -38.4375 C 40.320312 -37.082031 40.53125 -35.78125 40.53125 -34.53125 C 40.53125 -32.570312 40.070312 -30.835938 39.15625 -29.328125 C 38.238281 -27.828125 37 -26.566406 35.4375 -25.546875 C 33.875 -24.523438 32.035156 -23.742188 29.921875 -23.203125 C 27.816406 -22.660156 25.578125 -22.390625 23.203125 -22.390625 C 26.617188 -21.304688 29.367188 -19.785156 31.453125 -17.828125 C 33.546875 -15.867188 35.195312 -13.785156 36.40625 -11.578125 C 37.03125 -10.484375 37.644531 -9.28125 38.25 -7.96875 C 38.851562 -6.65625 39.382812 -5.476562 39.84375 -4.4375 C 40.007812 -4.0625 40.195312 -3.65625 40.40625 -3.21875 C 40.613281 -2.78125 40.863281 -2.363281 41.15625 -1.96875 C 41.445312 -1.570312 41.757812 -1.25 42.09375 -1 C 42.425781 -0.75 42.820312 -0.625 43.28125 -0.625 Z M 34.71875 -34.21875 C 34.71875 -37.882812 33.628906 -40.625 31.453125 -42.4375 C 29.285156 -44.25 26.367188 -45.15625 22.703125 -45.15625 C 21.410156 -45.15625 20.023438 -45.019531 18.546875 -44.75 C 17.066406 -44.476562 15.679688 -44.050781 14.390625 -43.46875 L 14.390625 -24.015625 L 17.703125 -23.703125 C 18.535156 -23.617188 19.390625 -23.535156 20.265625 -23.453125 C 21.140625 -23.367188 21.992188 -23.328125 22.828125 -23.328125 C 24.617188 -23.328125 26.242188 -23.597656 27.703125 -24.140625 C 29.160156 -24.679688 30.410156 -25.429688 31.453125 -26.390625 C 32.503906 -27.347656 33.3125 -28.492188 33.875 -29.828125 C 34.4375 -31.171875 34.71875 -32.632812 34.71875 -34.21875 Z M 34.71875 -34.21875 "/></g></g></g><g fill="#ffffff" fill-opacity="1"><g transform="translate(46.784955, 54.667482)"><g><path d="M 37.53125 -45.21875 L 38.09375 -35.78125 L 37.34375 -35.78125 L 36.65625 -40.96875 C 36.195312 -41.507812 35.457031 -42 34.4375 -42.4375 C 33.414062 -42.875 32.210938 -43.25 30.828125 -43.5625 C 29.453125 -43.875 27.953125 -44.101562 26.328125 -44.25 C 24.703125 -44.394531 23.054688 -44.46875 21.390625 -44.46875 C 19.929688 -44.46875 18.753906 -44.425781 17.859375 -44.34375 C 16.960938 -44.257812 16.265625 -44.09375 15.765625 -43.84375 C 15.265625 -43.59375 14.921875 -43.238281 14.734375 -42.78125 C 14.546875 -42.320312 14.453125 -41.738281 14.453125 -41.03125 L 14.453125 -24.078125 L 18.015625 -24.078125 C 21.054688 -24.078125 23.398438 -24.210938 25.046875 -24.484375 C 26.691406 -24.753906 27.898438 -25.085938 28.671875 -25.484375 C 29.441406 -25.878906 29.890625 -26.304688 30.015625 -26.765625 C 30.140625 -27.222656 30.203125 -27.660156 30.203125 -28.078125 L 30.203125 -29.515625 L 30.953125 -29.515625 L 30.953125 -17.890625 L 30.203125 -17.890625 L 30.203125 -19.453125 C 30.203125 -19.867188 30.140625 -20.304688 30.015625 -20.765625 C 29.890625 -21.222656 29.441406 -21.640625 28.671875 -22.015625 C 27.898438 -22.390625 26.691406 -22.703125 25.046875 -22.953125 C 23.398438 -23.203125 21.054688 -23.328125 18.015625 -23.328125 L 14.453125 -23.328125 L 14.453125 -4.125 C 14.453125 -3.375 14.554688 -2.78125 14.765625 -2.34375 C 14.972656 -1.90625 15.265625 -1.570312 15.640625 -1.34375 C 16.015625 -1.113281 16.441406 -0.957031 16.921875 -0.875 C 17.398438 -0.789062 17.910156 -0.75 18.453125 -0.75 C 19.742188 -0.75 21.078125 -0.78125 22.453125 -0.84375 C 23.828125 -0.90625 25.148438 -0.988281 26.421875 -1.09375 C 27.691406 -1.195312 28.878906 -1.320312 29.984375 -1.46875 C 31.097656 -1.613281 32.03125 -1.789062 32.78125 -2 C 34.363281 -2.457031 35.65625 -3.101562 36.65625 -3.9375 C 37.65625 -4.769531 38.363281 -5.726562 38.78125 -6.8125 L 39.46875 -9.625 L 40.21875 -9.625 L 38.40625 0 L 2.875 0 L 2.875 -0.75 L 5.0625 -0.75 C 6.726562 -0.75 7.820312 -0.988281 8.34375 -1.46875 C 8.863281 -1.945312 9.125 -2.832031 9.125 -4.125 L 9.125 -41.09375 C 9.125 -42.59375 8.738281 -43.53125 7.96875 -43.90625 C 7.195312 -44.28125 6.226562 -44.46875 5.0625 -44.46875 L 2.875 -44.46875 L 2.875 -45.21875 Z M 37.53125 -45.21875 "/></g></g></g><g fill="#ffffff" fill-opacity="1"><g transform="translate(88.253436, 54.667482)"><g><path d="M 9.5625 -2.1875 C 9.5625 -1.351562 9.28125 -0.625 8.71875 0 C 8.15625 0.625 7.394531 0.9375 6.4375 0.9375 C 5.601562 0.9375 4.875 0.644531 4.25 0.0625 C 3.625 -0.519531 3.3125 -1.269531 3.3125 -2.1875 C 3.3125 -3.0625 3.625 -3.800781 4.25 -4.40625 C 4.875 -5.007812 5.601562 -5.3125 6.4375 -5.3125 C 7.394531 -5.3125 8.15625 -5 8.71875 -4.375 C 9.28125 -3.75 9.5625 -3.019531 9.5625 -2.1875 Z M 9.5625 -28.453125 C 9.5625 -27.617188 9.28125 -26.890625 8.71875 -26.265625 C 8.15625 -25.640625 7.394531 -25.328125 6.4375 -25.328125 C 5.601562 -25.328125 4.875 -25.617188 4.25 -26.203125 C 3.625 -26.785156 3.3125 -27.535156 3.3125 -28.453125 C 3.3125 -29.328125 3.625 -30.066406 4.25 -30.671875 C 4.875 -31.285156 5.601562 -31.59375 6.4375 -31.59375 C 7.394531 -31.59375 8.15625 -31.273438 8.71875 -30.640625 C 9.28125 -30.015625 9.5625 -29.285156 9.5625 -28.453125 Z M 9.5625 -28.453125 "/></g></g></g><g fill="#ffffff" fill-opacity="1"><g transform="translate(101.138063, 54.667482)"><g><path d="M 33.65625 -11.328125 C 33.65625 -9.691406 33.332031 -8.144531 32.6875 -6.6875 C 32.039062 -5.226562 31.085938 -3.9375 29.828125 -2.8125 C 28.578125 -1.6875 27.023438 -0.789062 25.171875 -0.125 C 23.316406 0.539062 21.179688 0.875 18.765625 0.875 C 18.304688 0.875 17.628906 0.851562 16.734375 0.8125 C 15.835938 0.769531 14.765625 0.644531 13.515625 0.4375 C 12.265625 0.226562 10.863281 -0.101562 9.3125 -0.5625 C 7.769531 -1.019531 6.125 -1.6875 4.375 -2.5625 C 4.375 -2.101562 4.382812 -1.664062 4.40625 -1.25 C 4.425781 -0.832031 4.4375 -0.414062 4.4375 0 L 3.6875 0 L 2.75 -12.140625 L 3.5 -12.140625 L 3.8125 -9.4375 C 4.351562 -8.226562 5.113281 -7.0625 6.09375 -5.9375 C 7.070312 -4.8125 8.207031 -3.789062 9.5 -2.875 C 10.800781 -1.957031 12.222656 -1.226562 13.765625 -0.6875 C 15.304688 -0.144531 16.953125 0.125 18.703125 0.125 C 20.578125 0.125 22.179688 -0.113281 23.515625 -0.59375 C 24.847656 -1.070312 25.921875 -1.71875 26.734375 -2.53125 C 27.546875 -3.34375 28.140625 -4.269531 28.515625 -5.3125 C 28.890625 -6.351562 29.078125 -7.4375 29.078125 -8.5625 C 29.078125 -9.945312 28.753906 -11.253906 28.109375 -12.484375 C 27.460938 -13.710938 26.597656 -14.859375 25.515625 -15.921875 C 24.429688 -16.984375 23.171875 -17.972656 21.734375 -18.890625 C 20.296875 -19.804688 18.804688 -20.660156 17.265625 -21.453125 C 15.554688 -22.367188 13.925781 -23.296875 12.375 -24.234375 C 10.832031 -25.171875 9.46875 -26.191406 8.28125 -27.296875 C 7.09375 -28.398438 6.144531 -29.617188 5.4375 -30.953125 C 4.726562 -32.296875 4.375 -33.820312 4.375 -35.53125 C 4.375 -36.90625 4.59375 -38.238281 5.03125 -39.53125 C 5.46875 -40.820312 6.21875 -41.96875 7.28125 -42.96875 C 8.34375 -43.96875 9.75 -44.757812 11.5 -45.34375 C 13.257812 -45.925781 15.453125 -46.21875 18.078125 -46.21875 C 20.578125 -46.21875 22.835938 -45.90625 24.859375 -45.28125 C 26.878906 -44.65625 28.679688 -43.90625 30.265625 -43.03125 L 30.265625 -45.21875 L 31.015625 -45.21875 L 31.65625 -34.28125 L 30.890625 -34.28125 L 30.703125 -36.65625 C 30.453125 -37.613281 30.035156 -38.613281 29.453125 -39.65625 C 28.867188 -40.695312 28.085938 -41.644531 27.109375 -42.5 C 26.128906 -43.351562 24.921875 -44.0625 23.484375 -44.625 C 22.046875 -45.1875 20.304688 -45.46875 18.265625 -45.46875 C 16.304688 -45.46875 14.722656 -45.269531 13.515625 -44.875 C 12.304688 -44.476562 11.351562 -43.957031 10.65625 -43.3125 C 9.96875 -42.664062 9.5 -41.925781 9.25 -41.09375 C 9 -40.257812 8.875 -39.40625 8.875 -38.53125 C 8.875 -37.03125 9.1875 -35.6875 9.8125 -34.5 C 10.445312 -33.3125 11.296875 -32.222656 12.359375 -31.234375 C 13.421875 -30.253906 14.640625 -29.359375 16.015625 -28.546875 C 17.390625 -27.734375 18.847656 -26.929688 20.390625 -26.140625 C 22.015625 -25.265625 23.617188 -24.347656 25.203125 -23.390625 C 26.785156 -22.429688 28.203125 -21.367188 29.453125 -20.203125 C 30.710938 -19.035156 31.726562 -17.722656 32.5 -16.265625 C 33.269531 -14.804688 33.65625 -13.160156 33.65625 -11.328125 Z M 33.65625 -11.328125 "/></g></g></g><g fill="#ffffff" fill-opacity="1"><g transform="translate(138.040641, 54.667482)"><g><path d="M 40.40625 -45.21875 L 41.09375 -35.15625 L 40.34375 -35.15625 L 39.78125 -39.96875 C 38.738281 -41.757812 37.113281 -42.957031 34.90625 -43.5625 C 32.695312 -44.164062 30.085938 -44.46875 27.078125 -44.46875 C 26.285156 -44.46875 25.648438 -44.40625 25.171875 -44.28125 C 24.691406 -44.15625 24.328125 -44 24.078125 -43.8125 C 23.828125 -43.625 23.660156 -43.40625 23.578125 -43.15625 C 23.492188 -42.90625 23.453125 -42.65625 23.453125 -42.40625 L 23.453125 -4.125 C 23.453125 -3.539062 23.492188 -3.03125 23.578125 -2.59375 C 23.660156 -2.15625 23.847656 -1.800781 24.140625 -1.53125 C 24.429688 -1.257812 24.859375 -1.0625 25.421875 -0.9375 C 25.984375 -0.8125 26.722656 -0.75 27.640625 -0.75 L 29.703125 -0.75 L 29.703125 0 L 11.890625 0 L 11.890625 -0.75 L 14.078125 -0.75 C 15.742188 -0.75 16.835938 -0.988281 17.359375 -1.46875 C 17.878906 -1.945312 18.140625 -2.832031 18.140625 -4.125 L 18.140625 -42.34375 C 18.140625 -42.882812 17.941406 -43.375 17.546875 -43.8125 C 17.148438 -44.25 16.160156 -44.46875 14.578125 -44.46875 C 13.035156 -44.46875 11.613281 -44.414062 10.3125 -44.3125 C 9.019531 -44.207031 7.84375 -43.988281 6.78125 -43.65625 C 5.71875 -43.320312 4.78125 -42.863281 3.96875 -42.28125 C 3.15625 -41.695312 2.5 -40.925781 2 -39.96875 L 2 -40.03125 L 1.375 -35.15625 L 0.625 -35.15625 L 1.1875 -45.21875 Z M 40.40625 -45.21875 "/></g></g></g><g fill="#ffffff" fill-opacity="1"><g transform="translate(179.446568, 54.667482)"><g><path d="M 50.59375 -22.703125 C 50.59375 -21.160156 50.425781 -19.503906 50.09375 -17.734375 C 49.757812 -15.960938 49.226562 -14.195312 48.5 -12.4375 C 47.769531 -10.6875 46.8125 -9.007812 45.625 -7.40625 C 44.4375 -5.800781 42.96875 -4.382812 41.21875 -3.15625 C 39.46875 -1.925781 37.425781 -0.945312 35.09375 -0.21875 C 32.757812 0.507812 30.085938 0.875 27.078125 0.875 C 24.117188 0.875 21.472656 0.507812 19.140625 -0.21875 C 16.804688 -0.945312 14.773438 -1.925781 13.046875 -3.15625 C 11.316406 -4.382812 9.851562 -5.800781 8.65625 -7.40625 C 7.46875 -9.007812 6.507812 -10.6875 5.78125 -12.4375 C 5.050781 -14.195312 4.519531 -15.960938 4.1875 -17.734375 C 3.851562 -19.503906 3.6875 -21.160156 3.6875 -22.703125 C 3.6875 -25.203125 4.101562 -27.828125 4.9375 -30.578125 C 5.769531 -33.335938 7.101562 -35.875 8.9375 -38.1875 C 10.78125 -40.5 13.191406 -42.414062 16.171875 -43.9375 C 19.148438 -45.457031 22.785156 -46.21875 27.078125 -46.21875 C 31.460938 -46.21875 35.144531 -45.5 38.125 -44.0625 C 41.101562 -42.625 43.519531 -40.769531 45.375 -38.5 C 47.226562 -36.226562 48.5625 -33.691406 49.375 -30.890625 C 50.1875 -28.097656 50.59375 -25.367188 50.59375 -22.703125 Z M 44.78125 -22.703125 C 44.78125 -25.953125 44.394531 -28.960938 43.625 -31.734375 C 42.851562 -34.515625 41.726562 -36.925781 40.25 -38.96875 C 38.769531 -41.007812 36.925781 -42.601562 34.71875 -43.75 C 32.507812 -44.894531 29.960938 -45.46875 27.078125 -45.46875 C 24.242188 -45.46875 21.734375 -44.925781 19.546875 -43.84375 C 17.359375 -42.757812 15.523438 -41.226562 14.046875 -39.25 C 12.566406 -37.269531 11.4375 -34.867188 10.65625 -32.046875 C 9.882812 -29.234375 9.5 -26.117188 9.5 -22.703125 C 9.5 -19.785156 9.863281 -16.957031 10.59375 -14.21875 C 11.332031 -11.488281 12.441406 -9.0625 13.921875 -6.9375 C 15.398438 -4.8125 17.234375 -3.101562 19.421875 -1.8125 C 21.609375 -0.519531 24.160156 0.125 27.078125 0.125 C 30.085938 0.125 32.695312 -0.519531 34.90625 -1.8125 C 37.113281 -3.101562 38.945312 -4.8125 40.40625 -6.9375 C 41.863281 -9.0625 42.957031 -11.488281 43.6875 -14.21875 C 44.414062 -16.957031 44.78125 -19.785156 44.78125 -22.703125 Z M 44.78125 -22.703125 "/></g></g></g><g fill="#ffffff" fill-opacity="1"><g transform="translate(233.737128, 54.667482)"><g><path d="M 43.28125 -0.625 C 43.695312 -0.625 44.0625 -0.75 44.375 -1 C 44.6875 -1.25 44.9375 -1.5625 45.125 -1.9375 C 45.3125 -2.3125 45.457031 -2.71875 45.5625 -3.15625 C 45.664062 -3.59375 45.71875 -4.019531 45.71875 -4.4375 L 46.46875 -4.4375 C 46.46875 -3.976562 46.414062 -3.4375 46.3125 -2.8125 C 46.207031 -2.1875 45.96875 -1.601562 45.59375 -1.0625 C 45.21875 -0.519531 44.675781 -0.0625 43.96875 0.3125 C 43.257812 0.6875 42.300781 0.875 41.09375 0.875 C 39.757812 0.875 38.5625 0.5625 37.5 -0.0625 C 36.4375 -0.6875 35.445312 -1.570312 34.53125 -2.71875 C 33.613281 -3.863281 32.734375 -5.25 31.890625 -6.875 C 31.054688 -8.5 30.222656 -10.296875 29.390625 -12.265625 C 28.679688 -13.890625 27.828125 -15.398438 26.828125 -16.796875 C 25.828125 -18.191406 24.691406 -19.378906 23.421875 -20.359375 C 22.148438 -21.335938 20.765625 -22.085938 19.265625 -22.609375 C 17.765625 -23.128906 16.140625 -23.347656 14.390625 -23.265625 L 14.390625 -4.125 C 14.390625 -2.957031 14.691406 -2.101562 15.296875 -1.5625 C 15.898438 -1.019531 16.910156 -0.75 18.328125 -0.75 L 20.640625 -0.75 L 20.640625 0 L 2.875 0 L 2.875 -0.75 L 5 -0.75 C 6.5 -0.75 7.550781 -1.019531 8.15625 -1.5625 C 8.757812 -2.101562 9.0625 -2.957031 9.0625 -4.125 L 9.0625 -41.09375 C 9.0625 -42.59375 8.75 -43.53125 8.125 -43.90625 C 7.5 -44.28125 6.457031 -44.46875 5 -44.46875 L 2.875 -44.46875 L 2.875 -45.21875 L 9.9375 -45.21875 C 12.070312 -45.175781 14.328125 -45.28125 16.703125 -45.53125 C 19.078125 -45.78125 21.304688 -45.90625 23.390625 -45.90625 C 27.015625 -45.90625 29.941406 -45.550781 32.171875 -44.84375 C 34.410156 -44.132812 36.15625 -43.226562 37.40625 -42.125 C 38.65625 -41.019531 39.488281 -39.789062 39.90625 -38.4375 C 40.320312 -37.082031 40.53125 -35.78125 40.53125 -34.53125 C 40.53125 -32.570312 40.070312 -30.835938 39.15625 -29.328125 C 38.238281 -27.828125 37 -26.566406 35.4375 -25.546875 C 33.875 -24.523438 32.035156 -23.742188 29.921875 -23.203125 C 27.816406 -22.660156 25.578125 -22.390625 23.203125 -22.390625 C 26.617188 -21.304688 29.367188 -19.785156 31.453125 -17.828125 C 33.546875 -15.867188 35.195312 -13.785156 36.40625 -11.578125 C 37.03125 -10.484375 37.644531 -9.28125 38.25 -7.96875 C 38.851562 -6.65625 39.382812 -5.476562 39.84375 -4.4375 C 40.007812 -4.0625 40.195312 -3.65625 40.40625 -3.21875 C 40.613281 -2.78125 40.863281 -2.363281 41.15625 -1.96875 C 41.445312 -1.570312 41.757812 -1.25 42.09375 -1 C 42.425781 -0.75 42.820312 -0.625 43.28125 -0.625 Z M 34.71875 -34.21875 C 34.71875 -37.882812 33.628906 -40.625 31.453125 -42.4375 C 29.285156 -44.25 26.367188 -45.15625 22.703125 -45.15625 C 21.410156 -45.15625 20.023438 -45.019531 18.546875 -44.75 C 17.066406 -44.476562 15.679688 -44.050781 14.390625 -43.46875 L 14.390625 -24.015625 L 17.703125 -23.703125 C 18.535156 -23.617188 19.390625 -23.535156 20.265625 -23.453125 C 21.140625 -23.367188 21.992188 -23.328125 22.828125 -23.328125 C 24.617188 -23.328125 26.242188 -23.597656 27.703125 -24.140625 C 29.160156 -24.679688 30.410156 -25.429688 31.453125 -26.390625 C 32.503906 -27.347656 33.3125 -28.492188 33.875 -29.828125 C 34.4375 -31.171875 34.71875 -32.632812 34.71875 -34.21875 Z M 34.71875 -34.21875 "/></g></g></g><g fill="#ffffff" fill-opacity="1"><g transform="translate(280.52207, 54.667482)"><g><path d="M 37.53125 -45.21875 L 38.09375 -35.78125 L 37.34375 -35.78125 L 36.65625 -40.96875 C 36.195312 -41.507812 35.457031 -42 34.4375 -42.4375 C 33.414062 -42.875 32.210938 -43.25 30.828125 -43.5625 C 29.453125 -43.875 27.953125 -44.101562 26.328125 -44.25 C 24.703125 -44.394531 23.054688 -44.46875 21.390625 -44.46875 C 19.929688 -44.46875 18.753906 -44.425781 17.859375 -44.34375 C 16.960938 -44.257812 16.265625 -44.09375 15.765625 -43.84375 C 15.265625 -43.59375 14.921875 -43.238281 14.734375 -42.78125 C 14.546875 -42.320312 14.453125 -41.738281 14.453125 -41.03125 L 14.453125 -24.078125 L 18.015625 -24.078125 C 21.054688 -24.078125 23.398438 -24.210938 25.046875 -24.484375 C 26.691406 -24.753906 27.898438 -25.085938 28.671875 -25.484375 C 29.441406 -25.878906 29.890625 -26.304688 30.015625 -26.765625 C 30.140625 -27.222656 30.203125 -27.660156 30.203125 -28.078125 L 30.203125 -29.515625 L 30.953125 -29.515625 L 30.953125 -17.890625 L 30.203125 -17.890625 L 30.203125 -19.453125 C 30.203125 -19.867188 30.140625 -20.304688 30.015625 -20.765625 C 29.890625 -21.222656 29.441406 -21.640625 28.671875 -22.015625 C 27.898438 -22.390625 26.691406 -22.703125 25.046875 -22.953125 C 23.398438 -23.203125 21.054688 -23.328125 18.015625 -23.328125 L 14.453125 -23.328125 L 14.453125 -4.125 C 14.453125 -3.375 14.554688 -2.78125 14.765625 -2.34375 C 14.972656 -1.90625 15.265625 -1.570312 15.640625 -1.34375 C 16.015625 -1.113281 16.441406 -0.957031 16.921875 -0.875 C 17.398438 -0.789062 17.910156 -0.75 18.453125 -0.75 C 19.742188 -0.75 21.078125 -0.78125 22.453125 -0.84375 C 23.828125 -0.90625 25.148438 -0.988281 26.421875 -1.09375 C 27.691406 -1.195312 28.878906 -1.320312 29.984375 -1.46875 C 31.097656 -1.613281 32.03125 -1.789062 32.78125 -2 C 34.363281 -2.457031 35.65625 -3.101562 36.65625 -3.9375 C 37.65625 -4.769531 38.363281 -5.726562 38.78125 -6.8125 L 39.46875 -9.625 L 40.21875 -9.625 L 38.40625 0 L 2.875 0 L 2.875 -0.75 L 5.0625 -0.75 C 6.726562 -0.75 7.820312 -0.988281 8.34375 -1.46875 C 8.863281 -1.945312 9.125 -2.832031 9.125 -4.125 L 9.125 -41.09375 C 9.125 -42.59375 8.738281 -43.53125 7.96875 -43.90625 C 7.195312 -44.28125 6.226562 -44.46875 5.0625 -44.46875 L 2.875 -44.46875 L 2.875 -45.21875 Z M 37.53125 -45.21875 "/></g></g></g></g></g></g></svg>